# xmcd
#
# Track frame offsets: 
#        150
#        2518
#        16400
#        25871
#        40545
#        42382
#        57356
#        72330
#        74650
#        77349
#        93427
#        109505
#        125205
#        140889
#        155474
#        168142
#        180823
#        183819
#        201017
#        216916
#        233510
#        250104
#        265770
#        281106
#        294126
#        306917
#        323441
#        338127
#
# Disc length: 4758 seconds
#
# Revision: 0
# Processed by: cddbd v1.5.2PL0 Copyright (c) Steve Scherf et al.
# Submitted via: ExactAudioCopy v0.95b3
#
DISCID=7b12941c
DTITLE=The Beatles  - The Sgt Pepper Recording Sessions Reconstructed 
DTITLE=Outtakes and Outfakes - D 1
DYEAR=1900
DGENRE=
TTITLE0=STRAWBERRY FIELDS FOREVER   Rehearsal
TTITLE1=STRAWBERRY FIELDS FOREVER    Take 1
TTITLE2=STRAWBERRY FIELDS FOREVER    SI onto take 1
TTITLE3=STRAWBERRY FIELDS FOREVER    Take 2
TTITLE4=STRAWBERRY FIELDS FOREVER    Take 3
TTITLE5=STRAWBERRY FIELDS FOREVER    Take 4
TTITLE6=STRAWBERRY FIELDS FOREVER    SI onto take 4
TTITLE7=STRAWBERRY FIELDS FOREVER    Rehearsals
TTITLE8=STRAWBERRY FIELDS FOREVER    Take 5
TTITLE9=STRAWBERRY FIELDS FOREVER    Take 6
TTITLE10=STRAWBERRY FIELDS FOREVER    SI onto take 6
TTITLE11=STRAWBERRY FIELDS FOREVER    SI onto take 7
TTITLE12=STRAWBERRY FIELDS FOREVER    SI onto take 7
TTITLE13=STRAWBERRY FIELDS FOREVER    Take 7 RM 3
TTITLE14=WHEN I'M SIXTY-FOUR     Take 2
TTITLE15=WHEN I'M SIXTY-FOUR     SI onto take 2
TTITLE16=STRAWBERRY FIELDS FOREVER      Takes 9-24
TTITLE17=STRAWBERRY FIELDS FOREVER      Edit of takes 15 and 24 into t
TTITLE17=ake 25
TTITLE18=STRAWBERRY FIELDS FOREVER       SI onto take 25
TTITLE19=STRAWBERRY FIELDS FOREVER       SI onto take 25
TTITLE20=STRAWBERRY FIELDS FOREVER       SI onto take 25
TTITLE21=STRAWBERRY FIELDS FOREVER       Take 25 monitor mix
TTITLE22=STRAWBERRY FIELDS FOREVER       SI onto take 26
TTITLE23=WHEN I'M SIXTY-FOUR       SI onto take 2
TTITLE24=WHEN I'M SIXTY-FOUR       SI onto take 4
TTITLE25=STRAWBERRY FIELDS FOREVER       SI onto take 26
TTITLE26=STRAWBERRY FIELDS FOREVER      Take 26 monitor mix
TTITLE27=STRAWBERRY FIELDS FOREVER      Mono mix rm12
EXTD=
EXTT0=
EXTT1=
EXTT2=
EXTT3=
EXTT4=
EXTT5=
EXTT6=
EXTT7=
EXTT8=
EXTT9=
EXTT10=
EXTT11=
EXTT12=
EXTT13=
EXTT14=
EXTT15=
EXTT16=
EXTT17=
EXTT18=
EXTT19=
EXTT20=
EXTT21=
EXTT22=
EXTT23=
EXTT24=
EXTT25=
EXTT26=
EXTT27=
PLAYORDER=
